<svg width="14" height="15" viewBox="0 0 14 15" fill="none" xmlns="http://www.w3.org/2000/svg">
<path d="M5.19342 11.9548C3.92551 10.9069 2.84742 10.0427 1.95913 9.36195C1.73136 9.18603 1.51878 9.09425 1.32138 9.07895C1.12398 9.0713 0.9114 9.13249 0.691226 9.27016L0.592526 9.22427L0.205322 8.52826C0.296429 8.45942 0.478643 8.33705 0.744371 8.15348C1.0101 7.96992 1.26823 7.78635 1.53396 7.59514C1.8908 7.33509 2.24763 7.05974 2.58169 6.7691C2.92334 6.48611 3.13592 6.30254 3.23462 6.21841L3.34851 6.2643L3.75849 6.94502C3.53072 7.15153 3.37887 7.31215 3.28777 7.41158C3.19666 7.51865 3.15111 7.60279 3.14351 7.67927C3.13592 7.75576 3.17388 7.84754 3.24221 7.94697C3.37128 8.13054 4.00903 8.71947 5.15546 9.72143C6.30188 10.7234 7.07629 11.4041 7.48627 11.7559L7.61534 11.6641C7.41794 10.9528 6.87889 9.34665 5.9906 6.84559C5.85394 6.70026 5.70969 6.57024 5.56544 6.44021C5.39082 6.28724 5.22379 6.22606 5.04916 6.24135C4.88214 6.25665 4.66196 6.35608 4.39623 6.53965L4.29753 6.49375L3.91792 5.79009C4.02421 5.71361 4.2292 5.56828 4.51771 5.36942C4.81381 5.16291 5.10231 4.9564 5.39081 4.74989C5.72487 4.50514 6.05893 4.23744 6.40817 3.9468C6.75742 3.65616 6.97759 3.46494 7.08388 3.38081L7.19776 3.4267L7.60775 4.10742C7.37998 4.32158 7.21295 4.4822 7.12943 4.58163C7.03833 4.68871 6.99278 4.78049 6.99278 4.85697C6.99278 4.93346 7.02314 5.02524 7.09907 5.13232C7.21295 5.29294 7.8431 5.87422 8.99712 6.88383C10.1436 7.89343 10.9331 8.57415 11.3507 8.92598L11.4798 8.8342C11.3203 8.26056 10.9863 7.22801 10.47 5.7289C9.95374 4.22979 9.63487 3.40375 9.52099 3.24314C9.43747 3.12841 9.33877 3.07487 9.23248 3.09017C9.1186 3.10546 8.95916 3.1896 8.75417 3.34257L8.32901 3.64851L8.23031 3.60262L7.82792 2.88366C7.93421 2.81482 8.15439 2.6695 8.49604 2.44769C8.83769 2.22588 9.14138 2.00408 9.42229 1.80522C9.69561 1.60635 9.94615 1.41514 10.1663 1.24687C10.3865 1.07096 10.5383 0.963879 10.6067 0.910339L11.0394 1.67519C10.8952 1.82816 10.8117 1.95819 10.7889 2.08056C10.7661 2.20294 10.7965 2.39415 10.8724 2.66185L13.0438 9.75967L11.5481 11.1899C11.3355 10.9758 10.8724 10.5628 10.1436 9.94323C9.4147 9.3237 8.61751 8.66593 7.752 7.96227L7.6533 8.03111L9.17174 12.5896L7.66089 14.0275C7.28887 13.691 6.45373 13.0026 5.19342 11.9548Z" fill="white"/>
</svg>
