<svg width="26" height="26" viewBox="0 0 26 26" fill="none" xmlns="http://www.w3.org/2000/svg">
<g clip-path="url(#clip0)">
<path d="M12.7532 0C5.74842 0 0 5.74842 0 12.7532C0 18.7306 4.19436 24.1605 9.76413 25.5063V21.287C9.21226 21.4079 8.70436 21.4114 8.14255 21.2458C7.38888 21.0234 6.77648 20.5213 6.3219 19.7558C6.03214 19.2669 5.5186 18.7368 4.98287 18.7758L4.85152 17.2871C6.00996 17.1878 7.01213 17.9929 7.60702 18.9923C7.87128 19.4368 8.17544 19.6974 8.5658 19.8126C8.94313 19.9237 9.34828 19.8704 9.82037 19.7036C9.93888 18.7584 10.3719 18.4047 10.699 17.9065V17.9057C7.3772 17.4103 6.05335 15.648 5.52794 14.257C4.83167 12.4101 5.20529 10.1027 6.43651 8.64461C6.46045 8.6162 6.50365 8.54187 6.48691 8.48991C5.92239 6.78465 6.61029 5.37401 6.63559 5.22436C7.2871 5.41702 7.39296 5.03055 9.46562 6.28979L9.82388 6.50501C9.97372 6.59433 9.92662 6.54335 10.0765 6.53206C10.9418 6.29699 11.8541 6.16719 12.753 6.15551C13.6586 6.16719 14.5651 6.29699 15.4662 6.5416L15.5822 6.55327C15.5721 6.55172 15.6137 6.54588 15.6836 6.50423C18.2727 4.93597 18.1797 5.44854 18.874 5.22281C18.8991 5.37265 19.5779 6.80625 19.0194 8.48991C18.9441 8.72187 21.2641 10.8463 19.9782 14.2564C19.4528 15.648 18.1291 17.4103 14.8073 17.9057V17.9065C15.2331 18.5555 15.7447 18.9007 15.742 20.2395V25.5063C21.312 24.1605 25.5061 18.7306 25.5061 12.7532C25.5063 5.74842 19.7579 0 12.7532 0V0Z" fill="#DFF2E4"/>
</g>
<defs>
<clipPath id="clip0">
<rect width="25.5063" height="25.5063" fill="white"/>
</clipPath>
</defs>
</svg>
