<svg width="26" height="26" viewBox="0 0 26 26" fill="none" xmlns="http://www.w3.org/2000/svg">
<g clip-path="url(#clip0)">
<path d="M23.9254 5.12742L26 3.14275V2.70834H18.8132L13.6912 15.457L7.86392 2.70834H0.32825V3.14275L2.75167 6.06017C2.98783 6.27575 3.11133 6.591 3.07992 6.90842V18.3733C3.15467 18.7861 3.02033 19.2107 2.73 19.5108L0 22.8193V23.2483H7.74042V22.8139L5.01042 19.5108C4.71467 19.2097 4.57492 18.7926 4.6345 18.3733V8.4565L11.4292 23.2537H12.2189L18.0613 8.4565V20.2442C18.0613 20.5552 18.0613 20.6191 17.8577 20.8227L15.756 22.8562V23.2917H25.9523V22.8572L23.9265 20.8737C23.7488 20.7393 23.6567 20.514 23.6947 20.2952V5.70592C23.6567 5.486 23.7477 5.26067 23.9254 5.12742Z" fill="#DFF2E4"/>
</g>
<defs>
<clipPath id="clip0">
<rect width="26" height="26" fill="white"/>
</clipPath>
</defs>
</svg>
