<svg width="26" height="26" viewBox="0 0 26 26" fill="none" xmlns="http://www.w3.org/2000/svg">
<g clip-path="url(#clip0)">
<path d="M25.5063 4.84461C24.5578 5.26068 23.5471 5.53647 22.4934 5.67038C23.5774 5.02315 24.4048 4.00609 24.7937 2.78019C23.783 3.38278 22.6671 3.80841 21.4779 4.04594C20.5182 3.0241 19.1505 2.39122 17.6583 2.39122C14.7634 2.39122 12.4327 4.74099 12.4327 7.62161C12.4327 8.03609 12.4678 8.43462 12.5539 8.81403C8.20666 8.60201 4.35999 6.51846 1.77588 3.34452C1.32473 4.12724 1.06011 5.02315 1.06011 5.98761C1.06011 7.79856 1.99268 9.40386 3.38277 10.3332C2.54266 10.3173 1.71849 10.0734 1.02025 9.68921C1.02025 9.70516 1.02025 9.72588 1.02025 9.7466C1.02025 12.2877 2.83279 14.3983 5.20966 14.8845C4.78403 15.0009 4.32013 15.0567 3.8387 15.0567C3.50393 15.0567 3.16597 15.0376 2.84874 14.9674C3.52625 17.0382 5.44879 18.5606 7.73479 18.61C5.95572 20.0017 3.69682 20.8403 1.2514 20.8403C0.822579 20.8403 0.411289 20.8211 0 20.7685C2.31629 22.2622 5.06141 23.1151 8.02174 23.1151C17.644 23.1151 22.9047 15.1444 22.9047 8.23535C22.9047 8.0042 22.8967 7.78102 22.8855 7.55944C23.9233 6.82294 24.7953 5.90312 25.5063 4.84461Z" fill="#DFF2E4"/>
</g>
<defs>
<clipPath id="clip0">
<rect width="25.5063" height="25.5063" fill="white"/>
</clipPath>
</defs>
</svg>
